<svg width="60" height="60" viewBox="0 0 60 60" fill="none" xmlns="http://www.w3.org/2000/svg">
<rect x="0.5" y="0.5" width="59" height="59" rx="29.5" stroke="white"/>
<path fill-rule="evenodd" clip-rule="evenodd" d="M36 29C36 32.866 32.866 36 29 36C25.134 36 22 32.866 22 29C22 25.134 25.134 22 29 22C32.866 22 36 25.134 36 29ZM36.0319 34.6177C37.2635 33.078 38 31.125 38 29C38 24.0294 33.9706 20 29 20C24.0294 20 20 24.0294 20 29C20 33.9706 24.0294 38 29 38C31.125 38 33.078 37.2635 34.6177 36.0319L37.2929 38.7071C37.6834 39.0976 38.3166 39.0976 38.7071 38.7071C39.0976 38.3166 39.0976 37.6834 38.7071 37.2929L36.0319 34.6177Z" fill="white"/>
</svg>
